<svg width="24" height="24" viewBox="0 0 24 24" fill="none" xmlns="http://www.w3.org/2000/svg">
<path d="M19.4169 21H4.11133C6.22245 21 5.69467 16.25 5.69467 16.25C5.69467 15.0841 6.63992 8.33331 7.80578 8.33331H18.8891C18.8891 8.33331 21.0003 8.33331 21.0003 10.4444V19.4167C21.0003 19.4167 21.0003 21 19.4169 21Z" fill="#4880AF"/>
<path d="M17.8334 19.4167C17.8334 21.0001 19.4167 21.0001 19.4167 21.0001H3.58334C3.58334 21.0001 2 21.0001 2 18.8889V4.11112C2 3.55121 2.22242 3.01424 2.61833 2.61833C3.01424 2.22242 3.55121 2 4.11112 2H15.7223C16.2822 2 16.8191 2.22242 17.215 2.61833C17.611 3.01424 17.8334 3.55121 17.8334 4.11112V19.4167Z" fill="#CCDCEB"/>
<path d="M16.2497 12.5556C16.2497 12.6955 16.1941 12.8298 16.0951 12.9288C15.9962 13.0277 15.8619 13.0833 15.7219 13.0833H11.4997C11.3597 13.0833 11.2255 13.0277 11.1265 12.9288C11.0275 12.8298 10.9719 12.6955 10.9719 12.5556C10.9719 12.4156 11.0275 12.2813 11.1265 12.1824C11.2255 12.0834 11.3597 12.0278 11.4997 12.0278H15.7219C15.8619 12.0278 15.9962 12.0834 16.0951 12.1824C16.1941 12.2813 16.2497 12.4156 16.2497 12.5556ZM16.2497 10.4444C16.2497 10.5844 16.1941 10.7187 16.0951 10.8176C15.9962 10.9166 15.8619 10.9722 15.7219 10.9722H11.4997C11.3597 10.9722 11.2255 10.9166 11.1265 10.8176C11.0275 10.7187 10.9719 10.5844 10.9719 10.4444C10.9719 10.3045 11.0275 10.1702 11.1265 10.0712C11.2255 9.97227 11.3597 9.91666 11.4997 9.91666H15.7219C15.8619 9.91666 15.9962 9.97227 16.0951 10.0712C16.1941 10.1702 16.2497 10.3045 16.2497 10.4444ZM16.2497 8.33333C16.2497 8.4733 16.1941 8.60754 16.0951 8.70652C15.9962 8.8055 15.8619 8.8611 15.7219 8.8611H11.4997C11.3597 8.8611 11.2255 8.8055 11.1265 8.70652C11.0275 8.60754 10.9719 8.4733 10.9719 8.33333C10.9719 8.19335 11.0275 8.05911 11.1265 7.96013C11.2255 7.86115 11.3597 7.80555 11.4997 7.80555H15.7219C15.8619 7.80555 15.9962 7.86115 16.0951 7.96013C16.1941 8.05911 16.2497 8.19335 16.2497 8.33333ZM16.2497 14.6667C16.2497 14.8067 16.1941 14.9409 16.0951 15.0399C15.9962 15.1389 15.8619 15.1945 15.7219 15.1945H4.11079C3.97081 15.1945 3.83657 15.1389 3.73759 15.0399C3.63861 14.9409 3.58301 14.8067 3.58301 14.6667C3.58301 14.5267 3.63861 14.3925 3.73759 14.2935C3.83657 14.1945 3.97081 14.1389 4.11079 14.1389H15.7219C15.8619 14.1389 15.9962 14.1945 16.0951 14.2935C16.1941 14.3925 16.2497 14.5267 16.2497 14.6667ZM16.2497 16.7778C16.2497 16.9178 16.1941 17.052 16.0951 17.151C15.9962 17.25 15.8619 17.3056 15.7219 17.3056H4.11079C3.97081 17.3056 3.83657 17.25 3.73759 17.151C3.63861 17.052 3.58301 16.9178 3.58301 16.7778C3.58301 16.6378 3.63861 16.5036 3.73759 16.4046C3.83657 16.3056 3.97081 16.25 4.11079 16.25H15.7219C15.8619 16.25 15.9962 16.3056 16.0951 16.4046C16.1941 16.5036 16.2497 16.6378 16.2497 16.7778ZM16.2497 18.8889C16.2497 19.0289 16.1941 19.1631 16.0951 19.2621C15.9962 19.3611 15.8619 19.4167 15.7219 19.4167H4.11079C3.97081 19.4167 3.83657 19.3611 3.73759 19.2621C3.63861 19.1631 3.58301 19.0289 3.58301 18.8889C3.58301 18.7489 3.63861 18.6147 3.73759 18.5157C3.83657 18.4167 3.97081 18.3611 4.11079 18.3611H15.7219C15.8619 18.3611 15.9962 18.4167 16.0951 18.5157C16.1941 18.6147 16.2497 18.7489 16.2497 18.8889ZM15.1942 6.74999C15.1942 6.74999 16.2497 6.74999 16.2497 5.69443V4.63887C16.2497 4.63887 16.2497 3.58331 15.1942 3.58331H4.63857C4.63857 3.58331 3.58301 3.58331 3.58301 4.63887V5.69443C3.58301 5.69443 3.58301 6.74999 4.63857 6.74999H15.1942Z" fill="#4880AF"/>
<path d="M8.8608 13.0833C8.8608 13.0833 9.91636 13.0833 9.91636 12.0278V8.8611C9.91636 8.8611 9.91636 7.80554 8.8608 7.80554H4.63857C4.63857 7.80554 3.58301 7.80554 3.58301 8.8611V12.0278C3.58301 12.0278 3.58301 13.0833 4.63857 13.0833H8.8608Z" fill="#4880AF"/>
</svg>
