<svg width="24" height="24" viewBox="0 0 24 24" fill="none" xmlns="http://www.w3.org/2000/svg">
<rect width="24" height="24" rx="9" fill="#CCDCEB"/>
<path d="M9.47883 4.7226V6.36325C9.47883 6.76108 9.80316 7.088 10.2088 7.088H14.8029C14.8985 7.08846 14.9932 7.07006 15.0816 7.03386C15.17 6.99767 15.2505 6.94438 15.3183 6.87706C15.3861 6.80973 15.4399 6.7297 15.4768 6.64153C15.5136 6.55336 15.5327 6.4588 15.5329 6.36325V4.78054C15.3713 4.74237 15.2059 4.72292 15.0399 4.7226H9.47883ZM17.1009 20.2902H7.9117C7.46498 20.2911 7.02247 20.2039 6.60946 20.0337C6.19646 19.8634 5.82106 19.6134 5.50474 19.298C5.18842 18.9826 4.93739 18.6079 4.76599 18.1954C4.5946 17.7828 4.5062 17.3406 4.50586 16.8938V6.82076C4.50631 6.37412 4.59479 5.93194 4.76624 5.51951C4.93769 5.10708 5.18874 4.73249 5.50505 4.41715C5.82135 4.10181 6.19671 3.8519 6.60966 3.68171C7.02261 3.51152 7.46505 3.42439 7.9117 3.4253H15.0399C15.9421 3.42601 16.8073 3.78356 17.4468 4.41989L19.5078 6.47308C19.824 6.78791 20.0749 7.16204 20.2461 7.57404C20.4174 7.98603 20.5057 8.42778 20.5059 8.87395V16.893C20.5055 17.3396 20.4172 17.7818 20.2458 18.1943C20.0745 18.6068 19.8235 18.9814 19.5073 19.2968C19.1911 19.6123 18.8158 19.8623 18.4029 20.0326C17.99 20.2029 17.5475 20.291 17.1009 20.2902ZM15.5329 18.992V15.5196C15.5327 15.424 15.5136 15.3295 15.4768 15.2413C15.4399 15.1531 15.3861 15.0731 15.3183 15.0058C15.2505 14.9384 15.17 14.8852 15.0816 14.849C14.9932 14.8128 14.8985 14.7944 14.8029 14.7948H10.2088C10.1132 14.7944 10.0185 14.8128 9.9301 14.849C9.84167 14.8852 9.76125 14.9384 9.69345 15.0058C9.62564 15.0731 9.57179 15.1531 9.53496 15.2413C9.49813 15.3295 9.47906 15.424 9.47883 15.5196V18.992H15.5329Z" fill="#6B9CC5"/>
</svg>
