<svg width="24" height="24" viewBox="0 0 24 24" fill="none" xmlns="http://www.w3.org/2000/svg">
<path d="M18 5H6V19H18V5Z" fill="#D1D1D1"/>
<path fill-rule="evenodd" clip-rule="evenodd" d="M3 5.75C3 3.12665 5.12665 1 7.75 1H15.75C18.3734 1 20.5 3.12665 20.5 5.75V17.75C20.5 20.3734 18.3734 22.5 15.75 22.5H7.75C5.12665 22.5 3 20.3734 3 17.75V5.75ZM7.75 6C7.33579 6 7 6.33579 7 6.75C7 7.16421 7.33579 7.5 7.75 7.5H15.75C16.1642 7.5 16.5 7.16421 16.5 6.75C16.5 6.33579 16.1642 6 15.75 6H7.75ZM7 11.75C7 11.3358 7.33579 11 7.75 11H15.75C16.1642 11 16.5 11.3358 16.5 11.75C16.5 12.1642 16.1642 12.5 15.75 12.5H7.75C7.33579 12.5 7 12.1642 7 11.75ZM7.75 16C7.33579 16 7 16.3358 7 16.75C7 17.1642 7.33579 17.5 7.75 17.5H11.75C12.1642 17.5 12.5 17.1642 12.5 16.75C12.5 16.3358 12.1642 16 11.75 16H7.75Z" fill="#6D6D6D"/>
</svg>
