<svg width="16" height="16" viewBox="0 0 16 16" fill="none" xmlns="http://www.w3.org/2000/svg">
<path d="M12 8H4V13H12V8Z" fill="#4880AF"/>
<mask id="mask0_1748_4215" style="mask-type:luminance" maskUnits="userSpaceOnUse" x="0" y="1" width="16" height="14">
<path d="M12.3333 6H3.66667C3.29848 6 3 6.29848 3 6.66667V13.3333C3 13.7015 3.29848 14 3.66667 14H12.3333C12.7015 14 13 13.7015 13 13.3333V6.66667C13 6.29848 12.7015 6 12.3333 6Z" fill="white" stroke="white" stroke-width="2"/>
<path d="M5.66667 9.33333C6.03486 9.33333 6.33333 9.03486 6.33333 8.66667C6.33333 8.29848 6.03486 8 5.66667 8C5.29848 8 5 8.29848 5 8.66667C5 9.03486 5.29848 9.33333 5.66667 9.33333Z" fill="black"/>
<path d="M10.3333 9.33333C10.7015 9.33333 11 9.03486 11 8.66667C11 8.29848 10.7015 8 10.3333 8C9.9651 8 9.66663 8.29848 9.66663 8.66667C9.66663 9.03486 9.9651 9.33333 10.3333 9.33333Z" fill="black"/>
<path d="M6.66667 10.6667C6.48986 10.6667 6.32029 10.7369 6.19526 10.8619C6.07024 10.987 6 11.1565 6 11.3333C6 11.5101 6.07024 11.6797 6.19526 11.8047C6.32029 11.9298 6.48986 12 6.66667 12V10.6667ZM9.33333 12C9.51014 12 9.67971 11.9298 9.80474 11.8047C9.92976 11.6797 10 11.5101 10 11.3333C10 11.1565 9.92976 10.987 9.80474 10.8619C9.67971 10.7369 9.51014 10.6667 9.33333 10.6667V12ZM6.66667 12H9.33333V10.6667H6.66667V12Z" fill="black"/>
<path d="M7.99998 3.33333V6M1.33331 8.66667V11.3333M14.6666 8.66667V11.3333" stroke="white" stroke-width="2" stroke-linecap="round" stroke-linejoin="round"/>
<path d="M7.99998 3.33333C8.36817 3.33333 8.66665 3.03486 8.66665 2.66667C8.66665 2.29848 8.36817 2 7.99998 2C7.63179 2 7.33331 2.29848 7.33331 2.66667C7.33331 3.03486 7.63179 3.33333 7.99998 3.33333Z" stroke="white" stroke-width="2"/>
</mask>
<g mask="url(#mask0_1748_4215)">
<path d="M0 0H16V16H0V0Z" fill="#9FBFDA"/>
</g>
</svg>
