<svg width="24" height="24" viewBox="0 0 24 24" fill="none" xmlns="http://www.w3.org/2000/svg">
<path d="M18.6016 7.45798C19.6584 8.32911 20.5468 9.39647 21.208 10.6055C21.598 11.3186 21.598 12.1813 21.208 12.8945C19.3821 16.2331 15.831 18.4999 11.75 18.5C10.4947 18.5 9.29002 18.2838 8.16993 17.8896L10.708 15.3515C11.039 15.4471 11.3883 15.5 11.75 15.5C13.8211 15.5 15.5 13.821 15.5 11.75C15.5 11.3882 15.4471 11.0389 15.3516 10.708L18.6016 7.45798ZM11.75 4.99997C13.8069 5.00003 15.7287 5.57651 17.3633 6.57517L14.6113 9.32712C13.9235 8.51558 12.8972 7.99998 11.75 7.99997C9.67894 7.99997 8.00001 9.67891 8.00001 11.75C8.00001 12.8972 8.51561 13.9234 9.32716 14.6113L6.69532 17.2431C4.83607 16.2544 3.30141 14.7383 2.29298 12.8945C1.90292 12.1813 1.90291 11.3187 2.29298 10.6055C4.1189 7.26694 7.66906 5.00006 11.75 4.99997ZM11.75 9.49997C12.2622 9.49998 12.7332 9.67271 13.1113 9.96091L11.75 11.75L10.1641 13.3457C9.75403 12.9381 9.50001 12.3738 9.50001 11.75C9.50001 10.5073 10.5074 9.49997 11.75 9.49997Z" fill="#D1D1D1"/>
<path d="M19 4L4 19" stroke="#D1D1D1" stroke-width="1.5" stroke-linecap="round" stroke-linejoin="round"/>
</svg>
