<svg width="32" height="32" viewBox="0 0 32 32" fill="none" xmlns="http://www.w3.org/2000/svg">
<path d="M29.3334 15.9998C29.3334 23.3636 23.3638 29.3332 16.0001 29.3332C8.63628 29.3332 2.66675 23.3636 2.66675 15.9998C2.66675 8.63604 8.63628 2.6665 16.0001 2.6665C23.3638 2.6665 29.3334 8.63604 29.3334 15.9998ZM20.7071 15.3736C21.0977 14.983 21.0977 14.35 20.7071 13.9594L17.6498 10.9022C16.7386 9.99109 15.2615 9.99109 14.3503 10.9022L11.2931 13.9594C10.9025 14.35 10.9025 14.983 11.2931 15.3736C11.6836 15.7641 12.3166 15.7641 12.7071 15.3736L15.0001 13.0806V21.3332C15.0001 21.8854 15.4478 22.3332 16.0001 22.3332C16.5523 22.3332 17.0001 21.8854 17.0001 21.3332V13.0806L19.293 15.3736C19.6835 15.7641 20.3166 15.7641 20.7071 15.3736Z" fill="#9FBFDA"/>
</svg>
