<svg width="32" height="32" viewBox="0 0 32 32" fill="none" xmlns="http://www.w3.org/2000/svg">
<path d="M29.3333 15.9997C29.3333 23.3634 23.364 29.3335 16.0003 29.3337C8.63654 29.3337 2.66635 23.3635 2.66635 15.9997C2.66653 8.63605 8.63665 2.66669 16.0003 2.66669C23.3639 2.66686 29.3332 8.63616 29.3333 15.9997ZM21.5648 13.4938C21.8372 13.1822 21.8059 12.7079 21.4945 12.4352C21.1829 12.1626 20.7087 12.1943 20.4359 12.5056L17.4183 15.9548L14.9808 13.9235C14.6682 13.663 14.2041 13.6996 13.9359 14.0056L10.4359 18.0056C10.1632 18.3172 10.1946 18.7914 10.5062 19.0641C10.8179 19.3368 11.292 19.3054 11.5648 18.9938L14.5833 15.5456L17.0199 17.5759C17.3326 17.8364 17.7967 17.8001 18.0648 17.4938L21.5648 13.4938Z" fill="#D1D1D1"/>
</svg>
