<svg width="24" height="24" viewBox="0 0 24 24" fill="none" xmlns="http://www.w3.org/2000/svg">
<path d="M8.29392 2.6419V4.71835C8.29392 5.22186 8.70439 5.63562 9.21776 5.63562H15.0322C15.1532 5.63619 15.273 5.61291 15.3849 5.5671C15.4969 5.52128 15.5986 5.45384 15.6845 5.36864C15.7703 5.28343 15.8384 5.18214 15.885 5.07055C15.9317 4.95896 15.9558 4.83928 15.9561 4.71835V2.71524C15.7516 2.66692 15.5423 2.64231 15.3322 2.6419H8.29392ZM17.9406 22.3446H6.31051C5.74514 22.3458 5.18508 22.2354 4.66237 22.02C4.13966 21.8045 3.66455 21.4881 3.26421 21.0889C2.86387 20.6897 2.54615 20.2155 2.32923 19.6934C2.11231 19.1713 2.00043 18.6115 2 18.0461V5.29739C2.00057 4.7321 2.11256 4.17248 2.32954 3.6505C2.54653 3.12852 2.86427 2.65442 3.2646 2.25532C3.66492 1.85621 4.13999 1.53992 4.66262 1.32453C5.18526 1.10913 5.74523 0.998858 6.31051 1.00001H15.3322C16.474 1.00091 17.569 1.45343 18.3784 2.25879L20.9868 4.85736C21.387 5.25581 21.7045 5.72932 21.9213 6.25075C22.1381 6.77218 22.2498 7.33127 22.25 7.89596V18.045C22.2496 18.6103 22.1377 19.17 21.9209 19.692C21.704 20.214 21.3864 20.6882 20.9862 21.0874C20.586 21.4866 20.111 21.803 19.5884 22.0186C19.0658 22.2341 18.5059 22.3456 17.9406 22.3446ZM15.9561 20.7016V16.3068C15.9558 16.1859 15.9317 16.0662 15.885 15.9546C15.8384 15.843 15.7703 15.7417 15.6845 15.6565C15.5986 15.5713 15.4969 15.5039 15.3849 15.4581C15.273 15.4123 15.1532 15.389 15.0322 15.3896H9.21776C9.09683 15.389 8.97697 15.4123 8.86506 15.4581C8.75314 15.5039 8.65136 15.5713 8.56554 15.6565C8.47973 15.7417 8.41156 15.843 8.36495 15.9546C8.31835 16.0662 8.29421 16.1859 8.29392 16.3068V20.7016H15.9561Z" fill="#9FBFDA"/>
</svg>
