<svg width="32" height="32" viewBox="0 0 32 32" fill="none" xmlns="http://www.w3.org/2000/svg">
<path d="M29.3334 15.9998C29.3334 23.3636 23.3638 29.3332 16 29.3332C8.63622 29.3332 2.66669 23.3636 2.66669 15.9998C2.66669 8.63604 8.63622 2.6665 16 2.6665C23.3638 2.6665 29.3334 8.63604 29.3334 15.9998ZM20.7071 15.3736C21.0976 14.983 21.0976 14.35 20.7071 13.9594L17.6498 10.9022C16.7386 9.99109 15.2615 9.99109 14.3503 10.9022L11.293 13.9594C10.9025 14.35 10.9025 14.983 11.293 15.3736C11.6835 15.7641 12.3165 15.7641 12.707 15.3736L15 13.0806V21.3332C15 21.8854 15.4478 22.3332 16 22.3332C16.5523 22.3332 17 21.8854 17 21.3332V13.0806L19.293 15.3736C19.6835 15.7641 20.3166 15.7641 20.7071 15.3736Z" fill="#D1D1D1"/>
</svg>
