<svg width="24" height="24" viewBox="0 0 24 24" fill="none" xmlns="http://www.w3.org/2000/svg">
<path d="M12 5.25C16.0811 5.2501 19.6321 7.5168 21.458 10.8555C21.848 11.5686 21.848 12.4314 21.458 13.1445C19.6321 16.4832 16.081 18.7499 12 18.75C7.91908 18.7499 4.36889 16.483 2.54298 13.1445C2.15292 12.4313 2.15291 11.5687 2.54298 10.8555C4.3689 7.51696 7.91906 5.25009 12 5.25ZM12 8.25C9.92894 8.25 8.25001 9.92893 8.25001 12C8.25001 14.0711 9.92894 15.75 12 15.75C14.0711 15.75 15.75 14.0711 15.75 12C15.75 9.92894 14.0711 8.25001 12 8.25ZM12 9.75C12.6798 9.75 13.2876 10.0528 13.7002 10.5293C13.0154 10.6681 12.5 11.2742 12.5 12C12.5 12.7257 13.0155 13.3308 13.7002 13.4697C13.2876 13.9466 12.68 14.25 12 14.25C10.7574 14.25 9.75001 13.2426 9.75001 12C9.75001 10.7574 10.7574 9.75 12 9.75Z" fill="#D1D1D1"/>
</svg>
