<svg width="24" height="24" viewBox="0 0 24 24" fill="none" xmlns="http://www.w3.org/2000/svg">
<path d="M19.75 5.94641H3.75V18.8035H19.75V5.94641Z" fill="#248D5C"/>
<path d="M16.75 3C19.9256 3 22.5 5.75866 22.5 9.16113V15.5889C22.5 18.9913 19.9256 21.75 16.75 21.75H6.75C3.57436 21.75 1 18.9913 1 15.5889V9.16113C1 5.75866 3.57436 3 6.75 3H16.75ZM16.0361 8.34863C15.5271 8.17511 14.9605 8.44932 14.7715 8.96094L13.332 12.8604L12.6797 10.9688C12.5018 10.4533 11.9409 10.1666 11.4277 10.3291C11.3712 10.347 11.318 10.3707 11.2676 10.3975C10.9655 10.4885 10.708 10.7203 10.5977 11.04L9.95703 12.8945L8.50586 8.96094C8.31685 8.44928 7.75031 8.1751 7.24121 8.34863C6.73221 8.52236 6.47253 9.07808 6.66113 9.58984L7.69141 12.3838H6.75C6.20826 12.3838 5.76879 12.8236 5.76855 13.3652C5.76855 13.9071 6.20811 14.3467 6.75 14.3467H8.41602L8.9375 15.7617C9.05033 16.0673 9.29853 16.2867 9.58789 16.3779C9.64196 16.4077 9.70041 16.4327 9.76172 16.4521C10.2747 16.6143 10.8349 16.3278 11.0127 15.8125L11.6504 13.9629L12.2646 15.7412C12.4194 16.1897 12.8636 16.4641 13.3145 16.4209C13.7507 16.4546 14.1791 16.1939 14.3389 15.7617L14.8613 14.3467H16.75C17.2919 14.3467 17.7314 13.9071 17.7314 13.3652C17.7312 12.8236 17.2917 12.3838 16.75 12.3838H15.585L16.6162 9.58984C16.8048 9.07815 16.545 8.52242 16.0361 8.34863Z" fill="#00C86A"/>
<mask id="mask0_2277_5215" style="mask-type:luminance" maskUnits="userSpaceOnUse" x="17" y="16" width="7" height="7">
<path d="M24 16H17V23H24V16Z" fill="white"/>
</mask>
<g mask="url(#mask0_2277_5215)">
<path d="M18.7084 17.0271L18.7846 22.0265L22.3594 21.972L22.2832 16.9726L18.7084 17.0271Z" fill="white"/>
<path fill-rule="evenodd" clip-rule="evenodd" d="M20.5 23C22.433 23 24 21.433 24 19.5C24 17.567 22.433 16 20.5 16C18.567 16 17 17.567 17 19.5C17 21.433 18.567 23 20.5 23ZM20.8281 18.1875C20.8281 18.0063 20.6812 17.8594 20.5 17.8594C20.3188 17.8594 20.1719 18.0063 20.1719 18.1875V19.1719H19.1875C19.0063 19.1719 18.8594 19.3188 18.8594 19.5C18.8594 19.6812 19.0063 19.8281 19.1875 19.8281H20.1719V20.8125C20.1719 20.9937 20.3188 21.1406 20.5 21.1406C20.6812 21.1406 20.8281 20.9937 20.8281 20.8125V19.8281H21.8125C21.9937 19.8281 22.1406 19.6812 22.1406 19.5C22.1406 19.3188 21.9937 19.1719 21.8125 19.1719H20.8281V18.1875Z" fill="#248D5C"/>
</g>
</svg>
