<svg width="24" height="24" viewBox="0 0 24 24" fill="none" xmlns="http://www.w3.org/2000/svg">
<path d="M19 7H6V18H19V7Z" fill="#FF3300"/>
<path d="M16.7354 3C19.5048 3 21.75 5.2452 21.75 8.01465V16.7354C21.75 19.5048 19.5048 21.75 16.7354 21.75H8.01465C5.2452 21.75 3 19.5048 3 16.7354V8.01465C3 5.2452 5.2452 3 8.01465 3H16.7354ZM17.2295 9.41211C16.9178 9.13939 16.4436 9.17168 16.1709 9.4834L13.6016 12.4209L11.5469 10.709C11.2341 10.4483 10.7701 10.4846 10.502 10.791L7.4502 14.2793C7.17759 14.591 7.20884 15.0652 7.52051 15.3379C7.83217 15.6106 8.30632 15.5791 8.5791 15.2676L11.1494 12.3301L13.2031 14.041C13.4768 14.2691 13.866 14.2702 14.1387 14.0615L14.2471 13.959L17.2998 10.4707C17.5725 10.159 17.5412 9.68485 17.2295 9.41211Z" fill="#FFB3A3"/>
</svg>
