<svg width="24" height="24" viewBox="0 0 24 24" fill="none" xmlns="http://www.w3.org/2000/svg">
<path d="M12 11C9.79086 11 8 9.20914 8 7C8 4.79086 9.79086 3 12 3C14.2091 3 16 4.79086 16 7C16 9.20914 14.2091 11 12 11Z" fill="#9FBFDA" stroke="#9FBFDA" stroke-width="1.5"/>
<path d="M5 16.9348C5 16.0744 5.54085 15.3069 6.35109 15.0176C10.004 13.7129 13.996 13.7129 17.6489 15.0176C18.4591 15.3069 19 16.0744 19 16.9348V18.2503C19 19.4377 17.9483 20.3499 16.7728 20.1819L15.8184 20.0456C13.2856 19.6838 10.7144 19.6838 8.18162 20.0456L7.22721 20.1819C6.0517 20.3499 5 19.4377 5 18.2503V16.9348Z" fill="#9FBFDA" stroke="#9FBFDA" stroke-width="1.5"/>
</svg>
