<svg width="24" height="24" viewBox="0 0 24 24" fill="none" xmlns="http://www.w3.org/2000/svg">
<path fill-rule="evenodd" clip-rule="evenodd" d="M14.0443 4.33605C14.8248 3.55441 16.0906 3.55394 16.8717 4.33498L19.3635 6.82684C20.1379 7.60122 20.1459 8.85487 19.3816 9.63914L17.7216 11.3423L12.3811 6.00174L14.0443 4.33605ZM11.3213 7.0632L16.6746 12.4165L10.1484 19.1124C9.58401 19.6915 8.80989 20.0181 8.00154 20.018L5.24939 20.0179C4.39656 20.0179 3.71548 19.307 3.75135 18.4542L3.86951 15.6452C3.9011 14.894 4.21333 14.182 4.7444 13.6501L11.3213 7.0632ZM13.6435 19.945C13.6435 20.3593 13.9791 20.6952 14.3932 20.6952H20.5149C20.929 20.6952 21.2646 20.3593 21.2646 19.945C21.2646 19.5306 20.929 19.1947 20.5149 19.1947H14.3932C13.9791 19.1947 13.6435 19.5306 13.6435 19.945Z" fill="#B0B0B0"/>
</svg>
