<svg width="22" height="22" viewBox="0 0 22 22" fill="none" xmlns="http://www.w3.org/2000/svg">
<path d="M15.75 0C16.2985 0 16.8286 0.07826 17.3311 0.22168C16.6653 0.85885 16.25 1.75568 16.25 2.75C16.25 4.683 17.817 6.25 19.75 6.25C20.3879 6.25 20.985 6.07748 21.5 5.7793V15.75C21.5 18.9256 18.9256 21.5 15.75 21.5H5.75C2.57436 21.5 0 18.9256 0 15.75V5.75C0 2.57436 2.57436 0 5.75 0H15.75ZM16.2441 7.43555C15.9325 7.16283 15.4583 7.19426 15.1855 7.50586L12.168 10.9551L9.7305 8.9238C9.4177 8.6632 8.9537 8.69956 8.68555 9.0059L5.18555 13.0059C4.91283 13.3175 4.94426 13.7917 5.25586 14.0645C5.56754 14.3372 6.04167 14.3057 6.31445 13.9941L9.333 10.5459L11.7695 12.5762C12.0823 12.8368 12.5463 12.8004 12.8145 12.4941L16.3145 8.49414C16.5872 8.18246 16.5557 7.70833 16.2441 7.43555ZM18.9004 0.94043C20.0108 1.66922 20.8529 2.77156 21.249 4.06934C20.8825 4.48543 20.3481 4.75 19.75 4.75C18.6454 4.75 17.75 3.85457 17.75 2.75C17.75 1.94944 18.2209 1.25999 18.9004 0.94043Z" fill="#D1D1D1"/>
</svg>
