<svg width="24" height="24" viewBox="0 0 24 24" fill="none" xmlns="http://www.w3.org/2000/svg">
<path d="M2.83691 3.00242C5.51005 1.99939 8.48995 1.99939 11.1631 3.00242L11.25 3.03465V21.5239L9.83203 20.9927C8.01502 20.3108 5.98498 20.3108 4.16797 20.9927C2.83216 21.4936 1.2503 20.595 1.25 19.0805V5.22898C1.25022 4.2222 1.90218 3.35319 2.83691 3.00242ZM12.8369 3.00242C15.5101 1.99939 18.4899 1.99939 21.1631 3.00242C22.0978 3.35319 22.7498 4.2222 22.75 5.22898V19.0805C22.7497 20.595 21.1678 21.4936 19.832 20.9927C18.015 20.3108 15.985 20.3108 14.168 20.9927L12.75 21.5239V3.03465L12.8369 3.00242Z" fill="#4880AF"/>
</svg>
