<svg width="24" height="24" viewBox="0 0 24 24" fill="none" xmlns="http://www.w3.org/2000/svg">
<path d="M12.0005 1.25C12.9121 1.25004 13.7982 1.36383 14.645 1.57812C15.3361 1.75302 15.6932 2.34957 15.8081 2.8457C15.9441 3.43348 16.3131 3.9634 16.8755 4.28809C17.3925 4.58645 17.9771 4.65639 18.5161 4.5293C19.0116 4.41254 19.7036 4.46852 20.1665 5.00879C21.0273 6.01342 21.7063 7.17979 22.1519 8.45605C22.4176 9.2179 22.0059 9.9042 21.5708 10.2627C21.0685 10.6766 20.7505 11.3006 20.7505 12C20.7505 12.6994 21.0685 13.3234 21.5708 13.7373C22.0059 14.0958 22.4176 14.7821 22.1519 15.5439C21.7064 16.8201 21.0273 17.9866 20.1665 18.9912C19.7035 19.5315 19.0116 19.5866 18.5161 19.4697C17.977 19.3426 17.3926 19.4135 16.8755 19.7119C16.3131 20.0366 15.9441 20.5664 15.8081 21.1543C15.6933 21.6504 15.336 22.2469 14.645 22.4219C13.7983 22.6361 12.9121 22.75 12.0005 22.75C11.0888 22.75 10.2019 22.6362 9.355 22.4219C8.66411 22.2469 8.30676 21.6504 8.19192 21.1543C8.05599 20.5666 7.68772 20.0367 7.12551 19.7119C6.60839 19.4134 6.02312 19.3425 5.48391 19.4697C4.98838 19.5866 4.29655 19.5315 3.83352 18.9912C2.97278 17.9866 2.29369 16.8201 1.84817 15.5439C1.58242 14.7821 1.99414 14.0958 2.42922 13.7373C2.93154 13.3234 3.25051 12.6994 3.25051 12C3.25051 11.3006 2.93154 10.6766 2.42922 10.2627C1.99414 9.9042 1.58242 9.21787 1.84817 8.45605C2.29371 7.17981 2.97273 6.01341 3.83352 5.00879C4.29643 4.46855 4.9884 4.41256 5.48391 4.5293C6.02308 4.65644 6.60843 4.58662 7.12551 4.28809C7.68774 3.96338 8.05594 3.43339 8.19192 2.8457C8.30677 2.3496 8.66407 1.75309 9.355 1.57812C10.2019 1.36383 11.0888 1.25 12.0005 1.25ZM12.0005 9C10.3437 9 9.00051 10.3431 9.00051 12C9.00051 13.6569 10.3437 15 12.0005 15C13.6571 14.9997 15.0005 13.6567 15.0005 12C15.0005 10.3433 13.6571 9.00026 12.0005 9Z" fill="#4880AF"/>
</svg>
