<svg width="22" height="20" viewBox="0 0 22 20" fill="none" xmlns="http://www.w3.org/2000/svg">
<path d="M1.58691 0.752272C4.26005 -0.250757 7.23995 -0.250757 9.9131 0.752272L10 0.784503V19.2738L8.58203 18.7426C6.76502 18.0607 4.73498 18.0607 2.91797 18.7426C1.58216 19.2435 0.0003 18.3449 0 16.8304V2.97883C0.00022 1.97205 0.65218 1.10304 1.58691 0.752272ZM11.5869 0.752272C14.2601 -0.250757 17.2399 -0.250757 19.9131 0.752272C20.8478 1.10304 21.4998 1.97205 21.5 2.97883V16.8304C21.4997 18.3449 19.9178 19.2435 18.582 18.7426C16.765 18.0607 14.735 18.0607 12.918 18.7426L11.5 19.2738V0.784503L11.5869 0.752272Z" fill="#D1D1D1"/>
</svg>
